<?xml version="1.0" ?>
<!DOCTYPE svg  PUBLIC '-//W3C//DTD SVG 1.1//EN'  'http://www.w3.org/Graphics/SVG/1.1/DTD/svg11.dtd'>
<!-- Uploaded to: SVG Repo, www.svgrepo.com, Generator: SVG Repo Mixer Tools -->
<svg fill="#000000" width="800px" height="800px" viewBox="0 0 32 32" style="fill-rule:evenodd;clip-rule:evenodd;stroke-linejoin:round;stroke-miterlimit:2;" version="1.1" xml:space="preserve" xmlns="http://www.w3.org/2000/svg" xmlns:serif="http://www.serif.com/" xmlns:xlink="http://www.w3.org/1999/xlink">
<g transform="matrix(1,0,0,1,-144,-192)">
<g transform="matrix(1,0,0,1,-148,96)">
<path d="M313,101C313,100.47 312.789,99.961 312.414,99.586C312.039,99.211 311.53,99 311,99C307.537,99 300.463,99 297,99C296.47,99 295.961,99.211 295.586,99.586C295.211,99.961 295,100.47 295,101C295,105.843 295,118.157 295,123C295,123.53 295.211,124.039 295.586,124.414C295.961,124.789 296.47,125 297,125C301.69,125 313,125 313,125L313,101Z" style="fill:rgb(144,224,239);"/>
</g>
<g transform="matrix(1,0,0,1,-2,0)">
<path d="M174,207C174,205.895 173.105,205 172,205C169.931,205 167,205 167,205L167,221L168,221C171.314,221 174,218.314 174,215C174,212.178 174,209.001 174,207Z" style="fill:rgb(144,224,239);"/>
</g>
<path d="M149,222L166,222C169.866,222 173,218.866 173,215L173,207C173,205.343 171.657,204 170,204L166,204L166,197C166,196.204 165.684,195.441 165.121,194.879C164.559,194.316 163.796,194 163,194C159.537,194 152.463,194 149,194C148.204,194 147.441,194.316 146.879,194.879C146.316,195.441 146,196.204 146,197L146,219C146,219.796 146.316,220.559 146.879,221.121C147.441,221.684 148.204,222 149,222ZM164,197L164,220C164,220 149,220 149,220C148.735,220 148.48,219.895 148.293,219.707C148.105,219.52 148,219.265 148,219C148,219 148,197 148,197C148,196.735 148.105,196.48 148.293,196.293C148.48,196.105 148.735,196 149,196L163,196C163.265,196 163.52,196.105 163.707,196.293C163.895,196.48 164,196.735 164,197ZM166,206L170,206C170.552,206 171,206.448 171,207L171,215C171,217.761 168.761,220 166,220L166,220L166,206ZM151,217L152,217C152.552,217 153,216.552 153,216C153,215.448 152.552,215 152,215L151,215C150.448,215 150,215.448 150,216C150,216.552 150.448,217 151,217ZM156,217L161,217C161.552,217 162,216.552 162,216C162,215.448 161.552,215 161,215L156,215C155.448,215 155,215.448 155,216C155,216.552 155.448,217 156,217ZM151,213L152,213C152.552,213 153,212.552 153,212C153,211.448 152.552,211 152,211L151,211C150.448,211 150,211.448 150,212C150,212.552 150.448,213 151,213ZM156,213L161,213C161.552,213 162,212.552 162,212C162,211.448 161.552,211 161,211L156,211C155.448,211 155,211.448 155,212C155,212.552 155.448,213 156,213ZM151,209L152,209C152.552,209 153,208.552 153,208C153,207.448 152.552,207 152,207L151,207C150.448,207 150,207.448 150,208C150,208.552 150.448,209 151,209ZM156,209L161,209C161.552,209 162,208.552 162,208C162,207.448 161.552,207 161,207L156,207C155.448,207 155,207.448 155,208C155,208.552 155.448,209 156,209ZM151,205L152,205C152.552,205 153,204.552 153,204C153,203.448 152.552,203 152,203L151,203C150.448,203 150,203.448 150,204C150,204.552 150.448,205 151,205ZM156,205L161,205C161.552,205 162,204.552 162,204C162,203.448 161.552,203 161,203L156,203C155.448,203 155,203.448 155,204C155,204.552 155.448,205 156,205ZM151,201L152,201C152.552,201 153,200.552 153,200C153,199.448 152.552,199 152,199L151,199C150.448,199 150,199.448 150,200C150,200.552 150.448,201 151,201ZM156,201L161,201C161.552,201 162,200.552 162,200C162,199.448 161.552,199 161,199L156,199C155.448,199 155,199.448 155,200C155,200.552 155.448,201 156,201Z" style="fill:rgb(25,144,167);"/>
</g>
</svg>